<?xml version="1.0" encoding="utf-8"?>
<!-- Generator: Adobe Illustrator 27.9.0, SVG Export Plug-In . SVG Version: 6.00 Build 0)  -->
<svg version="1.1" id="uuid-39c97131-7ecd-48e0-95ee-2f3af97aec49"
	 xmlns="http://www.w3.org/2000/svg" xmlns:xlink="http://www.w3.org/1999/xlink" x="0px" y="0px" viewBox="0 0 196.4 231.9"
	 style="enable-background:new 0 0 196.4 231.9;" xml:space="preserve">
<style type="text/css">
	.st0{fill:#FFFFFF;stroke:#221F20;stroke-miterlimit:10;}
	.st1{fill:#221F20;}
	.st2{fill:#116A3F;stroke:#221F20;stroke-miterlimit:10;}
	.st3{fill:none;stroke:#221F20;stroke-miterlimit:10;}
	.st4{fill:#194224;stroke:#221F20;stroke-miterlimit:10;}
	.st5{fill:#1DADE5;stroke:#221F20;stroke-miterlimit:10;}
	.st6{font-family:'ArialRoundedMTBold';}
	.st7{font-size:30px;}
</style>
<g>
	<path class="st0" d="M1.7,118.1C3.1,72.8,31.2,32.4,73.1,15.5c41.6-16.9,89.5-7.7,122.1,23.4c-24.7,1.3-62,6.2-103.9,23.4
		C49.8,79.3,20.1,101.8,1.7,118.1z"/>
	<path class="st0" d="M195.2,38.8c-16.8,15.9-43.8,37.7-81.8,54.5c-45.7,20.2-86.8,24.2-111.7,24.7"/>
	<path class="st1" d="M69.3,16.8c-2.3-4.5-4.5-9.1-6.8-13.6c-0.3-0.6-0.6-1.3-1-1.9c-0.6-1.2-2.3-1.6-3.4-0.9
		c-1.2,0.8-1.5,2.2-0.9,3.4c2.3,4.6,4.5,9.1,6.8,13.6c0.3,0.6,0.6,1.3,1,1.9c0.6,1.2,2.3,1.6,3.4,0.9C69.6,19.5,69.9,18.1,69.3,16.8
		C69.3,16.8,69.3,16.8,69.3,16.8z"/>
	<path class="st1" d="M88.5,66.4c2.5,5,5,10.1,7.6,15.1l18.1,36.3c7.3,14.6,14.5,29.1,21.8,43.7c6.3,12.6,12.6,25.3,18.9,38
		c2.1,4.1,4.1,8.3,6.2,12.4c1,2,1.9,4,3,6c0,0.1,0.1,0.2,0.1,0.2c1.4,2.9,5.8,0.4,4.3-2.5c-2.5-5-5-10.1-7.6-15.1
		c-6-12.1-12.1-24.2-18.1-36.3l-21.8-43.7c-6.3-12.7-12.6-25.3-18.9-38l-6.2-12.4c-1-2-1.9-4-3-6c0-0.1-0.1-0.2-0.1-0.2
		C91.4,61,87.1,63.6,88.5,66.4C88.5,66.4,88.5,66.4,88.5,66.4z"/>
	<polyline class="st2" points="1.7,118.1 3.1,103.4 6,90.4 11.5,75.1 17.1,64.2 24.4,53 32.1,43.9 39.6,36.4 43.9,32.7 49.2,28.7 
		54.2,25.3 60.1,21.7 67.2,18.1 47.5,84.4 	"/>
	<polyline class="st2" points="47.7,83.6 67.2,18.1 131.9,48.7 	"/>
	<polyline class="st2" points="67.2,18.1 80.6,12.7 91.6,9.7 102.7,7.9 116.3,7.1 128.9,7.9 140.9,9.9 152.3,13 166.8,19 
		180.6,27.1 194.5,38.2 193.2,39 181.7,39.8 163.2,42.2 151.8,44.2 140.7,46.5 131.8,48.7 130.8,48.9 	"/>
	<line class="st3" x1="67.2" y1="18.1" x2="128.5" y2="48.9"/>
	<line class="st3" x1="47.5" y1="84.4" x2="128.5" y2="48.9"/>
	<line class="st3" x1="129" y1="49.4" x2="129" y2="49.4"/>
	<line class="st3" x1="132.6" y1="48.5" x2="132.6" y2="48.5"/>
	<line class="st3" x1="131.4" y1="48.9" x2="127.9" y2="49.7"/>
	<polygon class="st4" points="88,66.6 47.5,84.4 1.7,118.1 26.2,116.6 47.7,113.5 69.8,108.6 92.4,101.7 103.4,97.6 103.8,97.1 
		88.6,66.4 	"/>
	<polygon class="st4" points="93,64.3 122.6,51.5 139,46.9 164.2,42 194.5,38.9 180.8,51.6 162.8,65.4 146.1,76.3 127.8,86.5 
		111.4,94.2 108.3,95.5 	"/>
	<path class="st5" d="M64.4,131.9c-0.6,0.2,0,1.9-0.7,4.6c-0.6,2.5-1.5,2.7-1.5,4.4c0,1.7,1,4.1,3.1,4.6c1.6,0.4,3.2-0.6,4-1.5
		c1.3-1.5,1.2-3.3,1.1-3.7c-0.1-1.1-0.6-1.6-2.6-4.4C65.3,132.6,64.8,131.7,64.4,131.9L64.4,131.9z"/>
	<path class="st5" d="M61.8,172.2c-0.6,0.2,0,1.9-0.7,4.6c-0.6,2.5-1.5,2.7-1.5,4.4c0,1.7,1,4.1,3.1,4.6c1.6,0.4,3.2-0.6,4-1.5
		c1.3-1.5,1.2-3.3,1.1-3.7c-0.1-1.1-0.6-1.6-2.6-4.4C62.8,173,62.3,172.1,61.8,172.2L61.8,172.2z"/>
	<path class="st5" d="M37.6,150.2c-0.6,0.2,0,1.9-0.7,4.6c-0.6,2.5-1.5,2.7-1.5,4.4c0,1.7,1,4.1,3.1,4.6c1.6,0.4,3.2-0.6,4-1.5
		c1.3-1.5,1.2-3.3,1.1-3.7c-0.1-1.1-0.6-1.6-2.6-4.4C38.6,150.9,38.1,150,37.6,150.2L37.6,150.2z"/>
	<path class="st5" d="M54.4,150.2c-0.6,0.2,0,1.9-0.7,4.6c-0.6,2.5-1.5,2.7-1.5,4.4c0,1.7,1,4.1,3.1,4.6c1.6,0.4,3.2-0.6,4-1.5
		c1.3-1.5,1.2-3.3,1.1-3.7c-0.1-1.1-0.6-1.6-2.6-4.4C55.4,150.9,54.9,150,54.4,150.2L54.4,150.2z"/>
	<path class="st5" d="M50.9,187.9c-0.6,0.2,0,1.9-0.7,4.6c-0.6,2.5-1.5,2.7-1.5,4.4c0,1.7,1,4.1,3.1,4.6c1.6,0.4,3.2-0.6,4-1.5
		c1.3-1.5,1.2-3.3,1.1-3.7c-0.1-1.1-0.6-1.6-2.6-4.4C51.8,188.6,51.3,187.7,50.9,187.9L50.9,187.9z"/>
	<path class="st5" d="M75.1,204.5c4.8,0.3-0.3,2.5,5.4,6.3c5.2,3.5,12.7,3.8,12.6,6c-0.1,2.4-8.5,5.7-25.2,6.3
		c-13.1,0.5-25.7-0.8-32.3-2.1c-10.6-2-9.4-4.6-9-5.1c1-1.6,4.9-2.2,21.6-6C67.4,205.5,71.4,204.3,75.1,204.5L75.1,204.5z"/>
	<path class="st5" d="M36.7,179.1c-0.6,0.2,0,1.9-0.7,4.6c-0.6,2.5-1.5,2.7-1.5,4.4c0,1.7,1,4.1,3.1,4.6c1.6,0.4,3.2-0.6,4-1.5
		c1.3-1.5,1.2-3.3,1.1-3.7c-0.1-1.1-0.6-1.6-2.6-4.4C37.6,179.8,37.1,178.9,36.7,179.1L36.7,179.1z"/>
	<path class="st5" d="M41.7,121.3c-0.6,0.2,0,1.8-0.7,4.6c-0.6,2.5-1.5,2.7-1.5,4.4c0,1.7,1,4.1,3.1,4.6c1.6,0.4,3.2-0.6,4-1.5
		c1.3-1.5,1.2-3.3,1.1-3.7c-0.1-1.1-0.6-1.6-2.6-4.4C42.6,122,42.1,121.1,41.7,121.3z"/>
	<text transform="matrix(0.4813 0.8766 -0.8766 0.4813 128.0301 122.31)" class="st1 st6 st7">d</text>
	<text transform="matrix(0.4813 0.8766 -0.8766 0.4813 137.0603 138.75)" class="st1 st6 st7">r</text>
	<text transform="matrix(0.4813 0.8766 -0.8766 0.4813 143.3797 150.26)" class="st1 st6 st7">i</text>
	<text transform="matrix(0.4813 0.8766 -0.8766 0.4813 147.2898 157.3999)" class="st1 st6 st7">p</text>
	<text transform="matrix(0.4813 0.8766 -0.8766 0.4813 106.2596 159.51)" class="st1 st6 st7">d</text>
	<text transform="matrix(0.4813 0.8766 -0.8766 0.4813 115.2898 175.9599)" class="st1 st6 st7">r</text>
	<text transform="matrix(0.4813 0.8766 -0.8766 0.4813 121.0603 186.4699)" class="st1 st6 st7">o</text>
	<text transform="matrix(0.4813 0.8766 -0.8766 0.4813 129.7703 202.3501)" class="st1 st6 st7">p</text>
</g>
</svg>
